<svg id="ac893a05-037c-4a96-bfa3-740d54eee9fe" data-name="Layer 1" xmlns="http://www.w3.org/2000/svg" viewBox="0 0 1920 1080">
  <g>
    <path d="M1090.67,165.65h0A116.18,116.18,0,0,0,974.49,281.84V514.11h36.45V367.51a73.82,73.82,0,0,1,73.81-73.82h11.83a73.82,73.82,0,0,1,73.82,73.82v146.6h36.45V281.84A116.19,116.19,0,0,0,1090.67,165.65Z" fill="#ff55f1"/>
    <path d="M910.7,171V315.33a73.82,73.82,0,0,1-73.82,73.82H825.05a73.82,73.82,0,0,1-73.81-73.82V170.75H714.79V401A116.18,116.18,0,0,0,831,517.18h0A116.19,116.19,0,0,0,947.15,401V171Z" fill="#ff55f1"/>
    <polygon points="687.45 277.81 687.45 170.28 455.09 170.28 455.09 243.18 455.09 277.81 455.09 322.29 455.09 429.82 455.09 514.24 491.54 514.24 491.54 429.82 687.45 429.82 687.45 322.29 491.54 322.29 491.54 277.81 687.45 277.81" fill="#ff55f1"/>
    <path d="M1366.2,281.11a101.8,101.8,0,0,0,71.92-97.3V171.2h-33a111.16,111.16,0,0,1-110.71,101.5h0a111.28,111.28,0,0,1-24.38-2.7V171.53h-36.88v82.76l-.16-.1v31.38h.16V514.22h36.88V319.9a111.18,111.18,0,0,1,65.51,101.37v93h131.61V387.39A106.42,106.42,0,0,0,1366.2,281.11Z" fill="#ff55f1"/>
    <path d="M1350.14,561.24h0a116.7,116.7,0,0,0-116.7,116.7V911.25h36.61V764a74.15,74.15,0,0,1,74.15-74.15h11.88A74.15,74.15,0,0,1,1430.23,764V911.25h36.61V677.94A116.7,116.7,0,0,0,1350.14,561.24Z" fill="#8b00d1"/>
    <path d="M829.08,564.3h0c-64.45,0-116.7,53.28-116.7,119v112c0,65.73,52.25,119,116.7,119h0c64.45,0,116.7-53.29,116.7-119v-112C945.78,617.58,893.53,564.3,829.08,564.3Zm0,239.89c-53.14,0-96.22-29-96.22-64.87s43.08-64.87,96.22-64.87,96.22,29,96.22,64.87S882.22,804.19,829.08,804.19Z" fill="#8b00d1"/>
    <path d="M1089.94,564.3h0c-64.45,0-116.7,53.28-116.7,119v112c0,65.73,52.25,119,116.7,119h0c64.46,0,116.71-53.29,116.71-119v-112C1206.65,617.58,1154.4,564.3,1089.94,564.3Zm0,239.89c-53.14,0-96.21-29-96.21-64.87s43.07-64.87,96.21-64.87,96.22,29,96.22,64.87S1143.08,804.19,1089.94,804.19Z" fill="#8b00d1"/>
    <polygon points="686.22 568.01 452.82 568.01 452.82 676.02 551.21 676.02 551.21 911.25 587.83 911.25 587.83 676.02 686.22 676.02 686.22 568.01" fill="#8b00d1"/>
    <g>
      <path d="M887,688.14l4,.91,1,.23,37.29,8a44.52,44.52,0,0,0,53.32-33.53L1008,552.23,856.78,517.88,832.25,625.82A48.64,48.64,0,0,0,868.91,684L887,688.14Z" fill="#ff55f4"/>
      <path d="M982.26,588c-10-.14-18.72-8.71-19.8-19.53a4.13,4.13,0,0,0-8.21.82,30.71,30.71,0,0,0,6.3,15.76,23.64,23.64,0,0,1-2.23,3.51c-15.42,21-40.62,33.14-64.21,30.9-6.44-.61-22.18-3.49-29.25-16.93a4.12,4.12,0,0,0-7.3,3.84c6.29,12,19.33,19.74,35.77,21.3q3.17.3,6.36.3c24.49,0,49.55-13.09,65.28-34.53.57-.79,1.15-1.6,1.69-2.46a26.94,26.94,0,0,0,15.49,5.26h.06a4.12,4.12,0,0,0,0-8.24Z"/>
      <path d="M996.31,433.66l-31.5-7.76c-2-.6-4-1.14-6-1.6a85.1,85.1,0,0,0-18.89-2.13,83.8,83.8,0,0,0-16.81,1.71q5.63,3.84,11.34,8.53l3.29,2.62a87,87,0,0,1,9.3,8.81,174.9,174.9,0,0,1,16.69,21.72c3.78,5.62,7.42,11.33,11.06,17,2,3.17,4.12,6.46,6.33,9.88,9.84,15.25,17.77,31.19,25.28,50.93L853.91,508.77a4.12,4.12,0,0,0-1.82,8L1008,552.23,982.6,663.79a44.52,44.52,0,0,1-53.32,33.53l-37.29-8-1-.23-4-.91-12,53a26.16,26.16,0,0,0,19.33,31.22l0,.08,11.67,2.65a22,22,0,0,0,26.39-16.62l11.7-51.5,15.84,3.28a49.6,49.6,0,0,0,11,1.22c24.15,0,47.24-17.26,52.72-41.36L1048.14,562c0-.25.11-.48.16-.7l4.75,1.08,7.22-27.12A84.88,84.88,0,0,0,996.31,433.66ZM918,750.87a17.92,17.92,0,0,1-21.45,13.51h0A17.94,17.94,0,0,1,883,742.93L893.2,698l34.3,7.4.75.16ZM988,488c-2.2-3.41-4.29-6.69-6.31-9.85-12.78-20-22.61-35.42-36.44-47.54A78.72,78.72,0,0,1,957,432.34a76.64,76.64,0,0,1,57.75,91.71l-2.59,11.38A265.91,265.91,0,0,0,988,488Zm52.06,72.14-24.56,108.1a44.41,44.41,0,0,1-16.35,25,46.7,46.7,0,0,1-28.32,9.91,41.33,41.33,0,0,1-9.18-1l-.08,0h-.08l-.58-.12a53,53,0,0,0,6.37-3.44,52.42,52.42,0,0,0,23.34-33L1016,553.94l24.22,5.51C1040.19,559.68,1040.15,559.92,1040.09,560.15Zm12.17-26.88-5.13,19.28L1018.19,546l4.56-20.1A84.86,84.86,0,0,0,994,441.59l.47.12a76.62,76.62,0,0,1,57.78,91.56Z"/>
      <g>
        <path d="M1018.19,546l28.94,6.57,5.13-19.28a76.62,76.62,0,0,0-57.78-91.56l-.47-.12a84.86,84.86,0,0,1,28.74,84.29Z" fill="#11e353"/>
        <path d="M981.72,478.16c2,3.16,4.11,6.44,6.31,9.85a265.91,265.91,0,0,1,24.09,47.42l2.59-11.38A76.64,76.64,0,0,0,957,432.34a78.72,78.72,0,0,0-11.68-1.72C959.11,442.74,968.94,458.13,981.72,478.16Z" fill="#11e353"/>
        <path d="M849,511.88a4.11,4.11,0,0,1,4.93-3.11l152.47,34.64c-7.51-19.74-15.44-35.68-25.28-50.93-2.21-3.42-4.31-6.71-6.33-9.88-3.64-5.71-7.28-11.42-11.06-17A174.9,174.9,0,0,0,947,443.84a87,87,0,0,0-9.3-8.81l-3.29-2.62q-5.7-4.68-11.34-8.53h0c-26.64-18.18-51.75-22.22-67.51-7.6-18,16.72-19.41,53.8-6.66,95.9C848.94,512.08,849,512,849,511.88Z" fill="#11e353"/>
      </g>
      <path d="M910,762.07a17.81,17.81,0,0,0,7.93-11.2l10.3-45.33-.75-.16L893.2,698,883,742.93a17.94,17.94,0,0,0,13.51,21.45h0A17.81,17.81,0,0,0,910,762.07Z" fill="#fff"/>
      <path d="M1040.09,560.15c.06-.23.1-.47.15-.7L1016,553.94,990.65,665.61a52.42,52.42,0,0,1-23.34,33,53,53,0,0,1-6.37,3.44l.58.12h.08l.08,0a41.33,41.33,0,0,0,9.18,1,46.7,46.7,0,0,0,28.32-9.91,44.41,44.41,0,0,0,16.35-25Z" fill="#8e00d4"/>
    </g>
  </g>
</svg>
