<svg id="a149ef0d-751c-45bc-8821-01feb1942f1a" data-name="Layer 1" xmlns="http://www.w3.org/2000/svg" viewBox="0 0 1920 1080">
  <g>
    <path d="M855.81,394.17h0a77.66,77.66,0,0,0-77.67,77.67v155.3h24.37v-98a49.35,49.35,0,0,1,49.35-49.35h7.91a49.35,49.35,0,0,1,49.35,49.35v98h24.37V471.84A77.67,77.67,0,0,0,855.81,394.17Z" fill="#ff55f1"/>
    <path d="M1718.16,393.35h0a78,78,0,0,0-78,78v156h24.48V528.92a49.57,49.57,0,0,1,49.57-49.58h8a49.57,49.57,0,0,1,49.57,49.58v98.45h24.48v-156A78,78,0,0,0,1718.16,393.35Z" fill="#8b00d1"/>
    <path d="M735.49,397.72v96.52a49.36,49.36,0,0,1-49.35,49.35h-7.91a49.36,49.36,0,0,1-49.36-49.35V397.57H604.5v154a77.67,77.67,0,0,0,77.68,77.67h0a77.67,77.67,0,0,0,77.68-77.67V397.72Z" fill="#ff55f1"/>
    <path d="M1368.92,395.14h0c-43.1,0-78,35.62-78,79.57V549.6c0,43.95,34.93,79.58,78,79.58h0c43.09,0,78-35.63,78-79.58V474.71C1446.94,430.76,1412,395.14,1368.92,395.14Zm0,160.39c-35.53,0-64.33-19.42-64.33-43.37s28.8-43.37,64.33-43.37,64.33,19.42,64.33,43.37S1404.44,555.53,1368.92,555.53Z" fill="#8b00d1"/>
    <path d="M1543.33,395.14h0c-43.1,0-78,35.62-78,79.57V549.6c0,43.95,34.93,79.58,78,79.58h0c43.09,0,78-35.63,78-79.58V474.71C1621.35,430.76,1586.42,395.14,1543.33,395.14Zm0,160.39c-35.53,0-64.33-19.42-64.33-43.37s28.8-43.37,64.33-43.37,64.33,19.42,64.33,43.37S1578.86,555.53,1543.33,555.53Z" fill="#8b00d1"/>
    <polygon points="1272.53 397.62 1116.48 397.62 1116.48 469.84 1182.27 469.84 1182.27 627.11 1206.74 627.11 1206.74 469.84 1272.53 469.84 1272.53 397.62" fill="#8b00d1"/>
    <polygon points="586.23 469.15 586.23 397.26 430.87 397.26 430.87 446 430.87 469.15 430.87 498.89 430.87 570.79 430.87 627.23 455.24 627.23 455.24 570.79 586.23 570.79 586.23 498.89 455.24 498.89 455.24 469.15 586.23 469.15" fill="#ff55f1"/>
    <path d="M1040,471.36a68.06,68.06,0,0,0,48.08-65.06v-8.43h-22a74.31,74.31,0,0,1-74,67.86h0a74.07,74.07,0,0,1-16.29-1.8V398.09H951.09v55.33l-.1-.06v21h.1V627.21h24.67V497.29a74.36,74.36,0,0,1,43.79,67.78v62.14h88V542.42A71.15,71.15,0,0,0,1040,471.36Z" fill="#ff55f1"/>
  </g>
  <g>
    <path d="M174.49,594.67l3.51.8.87.2,32.53,7a38.84,38.84,0,0,0,46.52-29.26L280,476.11l-131.88-30-21.4,94.17a42.43,42.43,0,0,0,32,50.78l15.76,3.58Z" fill="#ff55f4"/>
    <path d="M257.62,507.27c-8.74-.11-16.33-7.59-17.27-17a3.6,3.6,0,0,0-7.17.72,26.78,26.78,0,0,0,5.5,13.74,21.57,21.57,0,0,1-2,3.06c-13.45,18.34-35.44,28.92-56,27-5.62-.53-19.35-3-25.51-14.76a3.6,3.6,0,1,0-6.37,3.34c5.49,10.45,16.86,17.22,31.2,18.59,1.85.17,3.7.26,5.56.26,21.36,0,43.22-11.42,56.94-30.13.5-.69,1-1.4,1.48-2.15a23.56,23.56,0,0,0,13.51,4.6h.05a3.6,3.6,0,0,0,.05-7.2Z"/>
    <path d="M269.87,372.67l-27.48-6.78c-1.72-.52-3.47-1-5.25-1.39a73.48,73.48,0,0,0-31.15-.37c3.28,2.24,6.59,4.72,9.9,7.44l2.87,2.29a76.48,76.48,0,0,1,8.11,7.68,153.81,153.81,0,0,1,14.57,18.95c3.29,4.9,6.46,9.89,9.64,14.87,1.77,2.77,3.6,5.64,5.52,8.62,8.59,13.3,15.5,27.21,22.06,44.43l-133-30.22a3.6,3.6,0,1,0-1.6,7l136,30.9-22.11,97.32a38.84,38.84,0,0,1-46.52,29.26l-32.53-7-.87-.2-3.51-.8L164,640.87a22.83,22.83,0,0,0,16.86,27.24v.07L191,670.49A19.23,19.23,0,0,0,214,656l10.21-44.93,13.81,2.85a43,43,0,0,0,9.61,1.07c21.07,0,41.22-15,46-36.08l21.43-94.3c.05-.22.1-.42.14-.61l4.15.94,6.3-23.66A74,74,0,0,0,269.87,372.67ZM201.51,649.4a15.62,15.62,0,0,1-18.71,11.78h0A15.65,15.65,0,0,1,171,642.47l8.91-39.21,29.93,6.45.65.14Zm61.14-229.32q-2.86-4.45-5.5-8.59C246,394,237.42,380.59,225.35,370a67.69,67.69,0,0,1,10.19,1.5,66.87,66.87,0,0,1,50.39,80l-2.26,9.93A232.35,232.35,0,0,0,262.65,420.08ZM308.07,483l-21.42,94.31a38.73,38.73,0,0,1-14.27,21.82,40.74,40.74,0,0,1-24.71,8.66,36.35,36.35,0,0,1-8-.89l-.07,0h-.07l-.5-.11A46.1,46.1,0,0,0,264.93,575l22.14-97.42,21.13,4.8C308.16,482.61,308.12,482.81,308.07,483Zm10.62-23.45-4.48,16.83L289,470.65l4-17.54a74,74,0,0,0-25.07-73.53l.41.1a66.86,66.86,0,0,1,50.41,79.88Z"/>
    <g>
      <path d="M289,470.65l25.25,5.74,4.48-16.83a66.86,66.86,0,0,0-50.41-79.88l-.41-.1a74,74,0,0,1,25.07,73.53Z" fill="#11e353"/>
      <path d="M257.15,411.49q2.64,4.13,5.5,8.59a232.35,232.35,0,0,1,21,41.37l2.26-9.93a66.87,66.87,0,0,0-50.39-80,67.69,67.69,0,0,0-10.19-1.5C237.42,380.59,246,394,257.15,411.49Z" fill="#11e353"/>
      <path d="M141.34,440.9a3.6,3.6,0,0,1,4.31-2.71l133,30.22c-6.56-17.22-13.47-31.13-22.06-44.43-1.92-3-3.75-5.85-5.52-8.62-3.18-5-6.35-10-9.64-14.87a153.81,153.81,0,0,0-14.57-18.95,76.48,76.48,0,0,0-8.11-7.68l-2.87-2.29c-3.31-2.72-6.62-5.2-9.9-7.44h0c-23.23-15.86-45.14-19.38-58.89-6.63-15.73,14.59-16.93,46.93-5.81,83.66C141.31,441.08,141.32,441,141.34,440.9Z" fill="#11e353"/>
    </g>
    <path d="M194.6,659.17a15.55,15.55,0,0,0,6.91-9.77l9-39.55-.65-.14-29.93-6.45L171,642.47a15.65,15.65,0,0,0,11.79,18.71h0A15.55,15.55,0,0,0,194.6,659.17Z" fill="#fff"/>
    <path d="M308.07,483c.05-.2.09-.4.13-.61l-21.13-4.8L264.93,575A46.1,46.1,0,0,1,239,606.77l.5.11h.07l.07,0a36.35,36.35,0,0,0,8,.89,40.74,40.74,0,0,0,24.71-8.66,38.73,38.73,0,0,0,14.27-21.82Z" fill="#8e00d4"/>
  </g>
</svg>
