<svg xmlns="http://www.w3.org/2000/svg" viewBox="0 0 24.94 35.03">
  <g id="a9f6b4e0-c747-4fe1-875a-5edf9f9612ed" data-name="APP">
    <g>
      <g>
        <path d="M14.6,24.31H18a0,0,0,0,1,0,0V33a1.71,1.71,0,0,1-1.71,1.71h0A1.71,1.71,0,0,1,14.6,33V24.31A0,0,0,0,1,14.6,24.31Z" transform="translate(-9.37 7.65) rotate(-20.65)"/>
        <path d="M14.6,24.31H18a0,0,0,0,1,0,0V33a1.71,1.71,0,0,1-1.71,1.71h0A1.71,1.71,0,0,1,14.6,33V24.31A0,0,0,0,1,14.6,24.31Z" transform="translate(-9.37 7.65) rotate(-20.65)" fill="none" stroke="#000" stroke-miterlimit="10"/>
      </g>
      <path d="M7.12.63h0A9.75,9.75,0,0,0,1.43,13.19L6.6,29a1.47,1.47,0,0,0,1.9.86L24,24a1.47,1.47,0,0,0,.86-1.9L19.68,6.31A9.75,9.75,0,0,0,7.12.63Z"/>
      <path d="M5.52,2.05h0A7.75,7.75,0,0,0,1,12l5.1,15.6a1.18,1.18,0,0,0,1.52.68l12.31-4.63a1.18,1.18,0,0,0,.68-1.52l-5.1-15.6A7.76,7.76,0,0,0,5.52,2.05Z" fill="#fff" stroke="#000" stroke-miterlimit="10"/>
    </g>
  </g>
</svg>
