<svg xmlns="http://www.w3.org/2000/svg" viewBox="0 0 23.14 24.69">
  <g id="e4349e20-a24a-4d29-9d28-5e1a852139ad" data-name="APP">
    <g>
      <path d="M12,.5h0a2.08,2.08,0,0,1,2.08,2.08V5.1a0,0,0,0,1,0,0H9.89a0,0,0,0,1,0,0V2.58A2.08,2.08,0,0,1,12,.5Z" fill="#fff" stroke="#000" stroke-linecap="round" stroke-linejoin="round"/>
      <path d="M8.57,17.64h6.3a0,0,0,0,1,0,0v3.91a3.15,3.15,0,0,1-3.15,3.15h0a3.15,3.15,0,0,1-3.15-3.15V17.64A0,0,0,0,1,8.57,17.64Z"/>
      <path d="M19.91,17.57v-6a8.2,8.2,0,0,0-6.76-8.18,8.06,8.06,0,0,0-9.3,7.94v5.84L.7,20.1a.62.62,0,0,0,.42,1.07H22a.62.62,0,0,0,.44-1.05Z" fill="#fff" stroke="#000" stroke-linecap="round" stroke-linejoin="round"/>
    </g>
  </g>
</svg>
