<svg xmlns="http://www.w3.org/2000/svg" viewBox="0 0 23.88 15.79">
  <g id="a0e3cae4-8e35-48af-a5dc-d9d4d8642517" data-name="APP">
    <g>
      <path d="M11.93,15.44h-.26A12.51,12.51,0,0,1,.56,8l1.1-.49a11.29,11.29,0,0,0,10,6.71h.24A11.24,11.24,0,0,0,22.2,7.53L23.3,8A12.45,12.45,0,0,1,11.93,15.44Z"/>
      <path d="M1.66,8.47.56,8A12.44,12.44,0,0,1,11.93.56h.26A12.53,12.53,0,0,1,23.3,8l-1.1.49a11.29,11.29,0,0,0-10-6.71A11.16,11.16,0,0,0,1.66,8.47Z"/>
      <circle cx="11.93" cy="6.24" r="5.08"/>
    </g>
  </g>
</svg>
