<svg xmlns="http://www.w3.org/2000/svg" viewBox="0 0 29.34 27.08">
  <g id="f9f7b5b7-f544-411b-9c2e-8b89c8ce0bf9" data-name="APP">
    <polygon points="28.11 12 14.41 1.32 0.5 12.16 4.59 12.16 4.59 25.59 24.36 25.59 24.36 12.02 28.11 12" fill="none" stroke="#fff" stroke-linecap="round" stroke-linejoin="round"/>
    <path d="M14.55,14h0a3.14,3.14,0,0,1,3.14,3.14v8.45a0,0,0,0,1,0,0H11.41a0,0,0,0,1,0,0V17.14A3.14,3.14,0,0,1,14.55,14Z" fill="#fff"/>
    <polygon points="7.93 3.47 6.29 3.47 6.29 7.46 7.93 6.09 7.93 3.47" fill="#fff"/>
  </g>
</svg>
