<svg xmlns="http://www.w3.org/2000/svg" viewBox="0 0 8 11.16">
  <g id="a7e12689-a4a2-4bc4-8f7b-d763785db139" data-name="APP">
    <g>
      <g>
        <path d="M4.84,7.51H5.9a0,0,0,0,1,0,0V10.2a.53.53,0,0,1-.53.53h0a.53.53,0,0,1-.53-.53V7.51a0,0,0,0,1,0,0Z" transform="translate(-2.87 2.48) rotate(-20.65)" fill="#b350e5"/>
        <path d="M4.84,7.51H5.9a0,0,0,0,1,0,0V10.2a.53.53,0,0,1-.53.53h0a.53.53,0,0,1-.53-.53V7.51a0,0,0,0,1,0,0Z" transform="translate(-2.87 2.48) rotate(-20.65)" fill="none" stroke="#b350e5" stroke-miterlimit="10"/>
      </g>
      <path d="M2.54.22h0A3,3,0,0,0,.79,4.08L2.38,8.94A.45.45,0,0,0,3,9.2L7.73,7.41A.46.46,0,0,0,8,6.82L6.41,2A3,3,0,0,0,2.54.22Z" fill="#b350e5"/>
      <path d="M2.05.65h0A2.4,2.4,0,0,0,.65,3.73l1.58,4.8a.36.36,0,0,0,.46.22L6.48,7.32a.36.36,0,0,0,.21-.47L5.12,2.05A2.38,2.38,0,0,0,2.05.65Z" fill="#b350e5" stroke="#b350e5" stroke-miterlimit="10"/>
    </g>
  </g>
</svg>
