<svg xmlns="http://www.w3.org/2000/svg" viewBox="0 0 9.01 11.16">
  <g id="a7da4014-523c-4b78-ac0f-6be43ba275e5" data-name="APP">
    <g>
      <g>
        <path d="M5.83,7.51H6.88a0,0,0,0,1,0,0V10.2a.53.53,0,0,1-.53.53h0a.53.53,0,0,1-.53-.53V7.51a0,0,0,0,1,0,0Z" transform="translate(-2.81 2.83) rotate(-20.65)" fill="#b350e5"/>
        <path d="M5.83,7.51H6.88a0,0,0,0,1,0,0V10.2a.53.53,0,0,1-.53.53h0a.53.53,0,0,1-.53-.53V7.51a0,0,0,0,1,0,0Z" transform="translate(-2.81 2.83) rotate(-20.65)" fill="none" stroke="#b350e5" stroke-miterlimit="10"/>
      </g>
      <path d="M3.52.22h0A3,3,0,0,0,1.77,4.08L3.36,8.94A.46.46,0,0,0,4,9.2L8.72,7.41A.46.46,0,0,0,9,6.82L7.39,2A3,3,0,0,0,3.52.22Z" fill="#b350e5"/>
      <path d="M3,.65H3A2.39,2.39,0,0,0,1.64,3.73l1.57,4.8a.37.37,0,0,0,.47.22L7.47,7.32a.37.37,0,0,0,.21-.47L6.11,2.05A2.4,2.4,0,0,0,3,.65Z" fill="#fff" stroke="#b350e5" stroke-miterlimit="10"/>
    </g>
  </g>
</svg>
