<svg xmlns="http://www.w3.org/2000/svg" viewBox="0 0 34.48 21.78">
  <g id="bff3e0d4-d7bc-4530-8136-febaa826b3ba" data-name="APP">
    <g>
      <rect width="21.54" height="14.08" rx="3.92" fill="#171717"/>
      <path d="M4,7V18.2A1.17,1.17,0,0,0,6,19l6-6" fill="#171717"/>
      <path d="M30.06,1.91H16.36a3.91,3.91,0,0,0-3.92,3.92v6.24A3.92,3.92,0,0,0,16.36,16H23L28,20.93a1.18,1.18,0,0,0,2-.83V16h.09A3.92,3.92,0,0,0,34,12.07V5.83A3.91,3.91,0,0,0,30.06,1.91Z" fill="#171717" stroke="#fff" stroke-miterlimit="10"/>
    </g>
  </g>
</svg>
